<mxfile host="app.diagrams.net" modified="2024-06-19T09:44:17.474Z" agent="Mozilla/5.0 (Windows NT 10.0; Win64; x64) AppleWebKit/537.36 (KHTML, like Gecko) Chrome/126.0.0.0 Safari/537.36" etag="tPTe0hdpN_V10rY5rr6v" version="24.5.4" type="device">
  <diagram name="Page-1" id="M-8QQX5cMfvskcX6O7hj">
    <mxGraphModel dx="895" dy="736" grid="1" gridSize="10" guides="1" tooltips="1" connect="1" arrows="1" fold="1" page="1" pageScale="1" pageWidth="1100" pageHeight="1700" math="0" shadow="0">
      <root>
        <mxCell id="0" />
        <mxCell id="1" parent="0" />
        <mxCell id="F1grGRwRxtX0mMmYjAbD-26" value="&amp;nbsp; &amp;nbsp; Machine 2" style="rounded=1;whiteSpace=wrap;html=1;dashed=1;verticalAlign=top;align=left;fontSize=21;" vertex="1" parent="1">
          <mxGeometry x="110" y="429" width="480" height="250" as="geometry" />
        </mxCell>
        <mxCell id="F1grGRwRxtX0mMmYjAbD-24" value="&amp;nbsp; &amp;nbsp; Machine 1" style="rounded=1;whiteSpace=wrap;html=1;dashed=1;verticalAlign=top;align=left;fontSize=21;" vertex="1" parent="1">
          <mxGeometry x="110" y="160" width="480" height="250" as="geometry" />
        </mxCell>
        <mxCell id="F1grGRwRxtX0mMmYjAbD-1" value="Elixir Node" style="rounded=1;whiteSpace=wrap;html=1;verticalAlign=top;fontSize=17;" vertex="1" parent="1">
          <mxGeometry x="130" y="190" width="190" height="210" as="geometry" />
        </mxCell>
        <mxCell id="F1grGRwRxtX0mMmYjAbD-2" value="" style="ellipse;whiteSpace=wrap;html=1;aspect=fixed;fillColor=#000000;" vertex="1" parent="1">
          <mxGeometry x="160" y="230" width="30" height="30" as="geometry" />
        </mxCell>
        <mxCell id="F1grGRwRxtX0mMmYjAbD-3" value="" style="ellipse;whiteSpace=wrap;html=1;aspect=fixed;fillColor=#000000;" vertex="1" parent="1">
          <mxGeometry x="210" y="330" width="30" height="30" as="geometry" />
        </mxCell>
        <mxCell id="F1grGRwRxtX0mMmYjAbD-4" value="" style="ellipse;whiteSpace=wrap;html=1;aspect=fixed;fillColor=#000000;" vertex="1" parent="1">
          <mxGeometry x="270" y="260" width="30" height="30" as="geometry" />
        </mxCell>
        <mxCell id="F1grGRwRxtX0mMmYjAbD-5" value="" style="rounded=1;whiteSpace=wrap;html=1;" vertex="1" parent="1">
          <mxGeometry x="390" y="190" width="190" height="210" as="geometry" />
        </mxCell>
        <mxCell id="F1grGRwRxtX0mMmYjAbD-29" value="Elixir Node" style="rounded=1;whiteSpace=wrap;html=1;verticalAlign=top;fontSize=17;" vertex="1" parent="1">
          <mxGeometry x="390" y="190" width="190" height="210" as="geometry" />
        </mxCell>
        <mxCell id="F1grGRwRxtX0mMmYjAbD-6" value="" style="ellipse;whiteSpace=wrap;html=1;aspect=fixed;fillColor=#000000;" vertex="1" parent="1">
          <mxGeometry x="455" y="270" width="30" height="30" as="geometry" />
        </mxCell>
        <mxCell id="F1grGRwRxtX0mMmYjAbD-7" value="" style="ellipse;whiteSpace=wrap;html=1;aspect=fixed;fillColor=#000000;" vertex="1" parent="1">
          <mxGeometry x="470" y="330" width="30" height="30" as="geometry" />
        </mxCell>
        <mxCell id="F1grGRwRxtX0mMmYjAbD-8" value="" style="ellipse;whiteSpace=wrap;html=1;aspect=fixed;fillColor=#000000;" vertex="1" parent="1">
          <mxGeometry x="525" y="230" width="30" height="30" as="geometry" />
        </mxCell>
        <mxCell id="F1grGRwRxtX0mMmYjAbD-12" value="" style="endArrow=classic;html=1;rounded=0;exitX=1;exitY=1;exitDx=0;exitDy=0;entryX=0.5;entryY=0;entryDx=0;entryDy=0;" edge="1" parent="1" source="F1grGRwRxtX0mMmYjAbD-2" target="F1grGRwRxtX0mMmYjAbD-3">
          <mxGeometry width="50" height="50" relative="1" as="geometry">
            <mxPoint x="380" y="500" as="sourcePoint" />
            <mxPoint x="430" y="450" as="targetPoint" />
          </mxGeometry>
        </mxCell>
        <mxCell id="F1grGRwRxtX0mMmYjAbD-13" value="" style="endArrow=classic;html=1;rounded=0;exitX=1;exitY=1;exitDx=0;exitDy=0;entryX=0;entryY=0.5;entryDx=0;entryDy=0;" edge="1" parent="1" source="F1grGRwRxtX0mMmYjAbD-2" target="F1grGRwRxtX0mMmYjAbD-4">
          <mxGeometry width="50" height="50" relative="1" as="geometry">
            <mxPoint x="196" y="266" as="sourcePoint" />
            <mxPoint x="235" y="340" as="targetPoint" />
          </mxGeometry>
        </mxCell>
        <mxCell id="F1grGRwRxtX0mMmYjAbD-14" value="" style="endArrow=classic;html=1;rounded=0;exitX=1;exitY=0.5;exitDx=0;exitDy=0;entryX=0;entryY=0.5;entryDx=0;entryDy=0;" edge="1" parent="1" source="F1grGRwRxtX0mMmYjAbD-4" target="F1grGRwRxtX0mMmYjAbD-6">
          <mxGeometry width="50" height="50" relative="1" as="geometry">
            <mxPoint x="196" y="266" as="sourcePoint" />
            <mxPoint x="235" y="340" as="targetPoint" />
          </mxGeometry>
        </mxCell>
        <mxCell id="F1grGRwRxtX0mMmYjAbD-15" value="" style="endArrow=classic;html=1;rounded=0;exitX=0;exitY=1;exitDx=0;exitDy=0;entryX=1;entryY=0;entryDx=0;entryDy=0;" edge="1" parent="1" source="F1grGRwRxtX0mMmYjAbD-8" target="F1grGRwRxtX0mMmYjAbD-6">
          <mxGeometry width="50" height="50" relative="1" as="geometry">
            <mxPoint x="410" y="520" as="sourcePoint" />
            <mxPoint x="460" y="470" as="targetPoint" />
          </mxGeometry>
        </mxCell>
        <mxCell id="F1grGRwRxtX0mMmYjAbD-16" value="" style="endArrow=classic;html=1;rounded=0;exitX=0.5;exitY=0;exitDx=0;exitDy=0;entryX=0.5;entryY=1;entryDx=0;entryDy=0;" edge="1" parent="1" source="F1grGRwRxtX0mMmYjAbD-7" target="F1grGRwRxtX0mMmYjAbD-8">
          <mxGeometry width="50" height="50" relative="1" as="geometry">
            <mxPoint x="410" y="520" as="sourcePoint" />
            <mxPoint x="460" y="470" as="targetPoint" />
          </mxGeometry>
        </mxCell>
        <mxCell id="F1grGRwRxtX0mMmYjAbD-17" value="" style="rounded=1;whiteSpace=wrap;html=1;" vertex="1" parent="1">
          <mxGeometry x="390" y="449" width="190" height="210" as="geometry" />
        </mxCell>
        <mxCell id="F1grGRwRxtX0mMmYjAbD-30" value="Elixir Node" style="rounded=1;whiteSpace=wrap;html=1;verticalAlign=top;fontSize=17;" vertex="1" parent="1">
          <mxGeometry x="390" y="449" width="190" height="210" as="geometry" />
        </mxCell>
        <mxCell id="F1grGRwRxtX0mMmYjAbD-18" value="" style="ellipse;whiteSpace=wrap;html=1;aspect=fixed;fillColor=#000000;" vertex="1" parent="1">
          <mxGeometry x="420" y="489" width="30" height="30" as="geometry" />
        </mxCell>
        <mxCell id="F1grGRwRxtX0mMmYjAbD-19" value="" style="ellipse;whiteSpace=wrap;html=1;aspect=fixed;fillColor=#000000;" vertex="1" parent="1">
          <mxGeometry x="470" y="589" width="30" height="30" as="geometry" />
        </mxCell>
        <mxCell id="F1grGRwRxtX0mMmYjAbD-20" value="" style="ellipse;whiteSpace=wrap;html=1;aspect=fixed;fillColor=#000000;" vertex="1" parent="1">
          <mxGeometry x="530" y="519" width="30" height="30" as="geometry" />
        </mxCell>
        <mxCell id="F1grGRwRxtX0mMmYjAbD-21" value="" style="endArrow=classic;html=1;rounded=0;exitX=1;exitY=1;exitDx=0;exitDy=0;entryX=0.5;entryY=0;entryDx=0;entryDy=0;" edge="1" parent="1" source="F1grGRwRxtX0mMmYjAbD-18" target="F1grGRwRxtX0mMmYjAbD-19">
          <mxGeometry width="50" height="50" relative="1" as="geometry">
            <mxPoint x="640" y="759" as="sourcePoint" />
            <mxPoint x="690" y="709" as="targetPoint" />
          </mxGeometry>
        </mxCell>
        <mxCell id="F1grGRwRxtX0mMmYjAbD-22" value="" style="endArrow=classic;html=1;rounded=0;exitX=1;exitY=1;exitDx=0;exitDy=0;entryX=0;entryY=0.5;entryDx=0;entryDy=0;" edge="1" parent="1" source="F1grGRwRxtX0mMmYjAbD-18" target="F1grGRwRxtX0mMmYjAbD-20">
          <mxGeometry width="50" height="50" relative="1" as="geometry">
            <mxPoint x="456" y="525" as="sourcePoint" />
            <mxPoint x="495" y="599" as="targetPoint" />
          </mxGeometry>
        </mxCell>
        <mxCell id="F1grGRwRxtX0mMmYjAbD-23" value="" style="endArrow=classic;html=1;rounded=0;exitX=0.5;exitY=0;exitDx=0;exitDy=0;entryX=0;entryY=1;entryDx=0;entryDy=0;" edge="1" parent="1" source="F1grGRwRxtX0mMmYjAbD-18" target="F1grGRwRxtX0mMmYjAbD-7">
          <mxGeometry width="50" height="50" relative="1" as="geometry">
            <mxPoint x="430" y="470" as="sourcePoint" />
            <mxPoint x="480" y="420" as="targetPoint" />
          </mxGeometry>
        </mxCell>
        <mxCell id="F1grGRwRxtX0mMmYjAbD-27" value="" style="ellipse;whiteSpace=wrap;html=1;aspect=fixed;fillColor=#000000;" vertex="1" parent="1">
          <mxGeometry x="680" y="210" width="30" height="30" as="geometry" />
        </mxCell>
        <mxCell id="F1grGRwRxtX0mMmYjAbD-28" value="&lt;font style=&quot;font-size: 19px;&quot;&gt;Elixir Process&lt;/font&gt;" style="text;html=1;align=center;verticalAlign=middle;whiteSpace=wrap;rounded=0;" vertex="1" parent="1">
          <mxGeometry x="642.5" y="170" width="105" height="30" as="geometry" />
        </mxCell>
        <mxCell id="F1grGRwRxtX0mMmYjAbD-31" value="&lt;span style=&quot;font-size: 19px;&quot;&gt;Message&lt;/span&gt;" style="text;html=1;align=center;verticalAlign=middle;whiteSpace=wrap;rounded=0;" vertex="1" parent="1">
          <mxGeometry x="642.5" y="270" width="105" height="30" as="geometry" />
        </mxCell>
        <mxCell id="F1grGRwRxtX0mMmYjAbD-32" value="" style="endArrow=classic;html=1;rounded=0;" edge="1" parent="1">
          <mxGeometry width="50" height="50" relative="1" as="geometry">
            <mxPoint x="650" y="320" as="sourcePoint" />
            <mxPoint x="740" y="320" as="targetPoint" />
          </mxGeometry>
        </mxCell>
      </root>
    </mxGraphModel>
  </diagram>
</mxfile>
